<?xml version="1.0" standalone="no"?>
<!DOCTYPE svg PUBLIC "-//W3C//DTD SVG 20010904//EN"
 "http://www.w3.org/TR/2001/REC-SVG-20010904/DTD/svg10.dtd">
<svg version="1.0" xmlns="http://www.w3.org/2000/svg"
 width="256.000000pt" height="256.000000pt" viewBox="0 0 256.000000 256.000000"
 preserveAspectRatio="xMidYMid meet">
<metadata>
Created by potrace 1.16, written by Peter Selinger 2001-2019
</metadata>
<g transform="translate(0.000000,256.000000) scale(0.100000,-0.100000)"
fill="#000000" stroke="none">
<path d="M1728 1748 c-140 -190 -128 -168 -128 -252 l0 -76 128 0 c70 0 137
-3 150 -6 43 -12 66 -90 40 -137 -23 -44 -34 -46 -230 -47 l-188 0 0 170 0
170 -80 0 -80 0 0 -154 0 -154 -31 -26 c-17 -14 -35 -26 -40 -26 -5 0 -9 45
-9 100 l0 100 -75 0 -75 0 0 -79 c0 -74 -2 -81 -26 -100 -33 -26 -59 -28 -49
-3 5 9 10 45 13 80 7 103 -31 179 -117 233 -38 24 -55 29 -112 29 l-66 0 -46
-75 -47 -75 88 0 c96 0 121 -10 147 -60 22 -42 19 -58 -19 -96 l-34 -34 -134
0 -133 0 -43 -67 -43 -68 193 -3 c216 -3 253 4 309 61 l32 31 42 -48 42 -48
31 16 c18 9 48 30 67 48 l36 31 17 -24 c9 -13 29 -37 44 -52 26 -26 29 -27 55
-13 15 7 49 35 74 61 l47 47 42 -56 42 -56 191 0 191 0 46 48 c119 123 104
304 -32 399 -32 22 -56 29 -109 33 l-68 5 75 95 c41 52 84 107 95 123 l20 27
-95 0 -95 0 -53 -72z"/>
<path d="M950 933 c-8 -3 -18 -11 -22 -17 -12 -18 -9 -131 4 -144 17 -17 299
-17 316 0 14 14 16 126 2 148 -7 12 -37 15 -147 17 -76 1 -145 -1 -153 -4z"/>
</g>
</svg>
